<svg width="52" height="52" viewBox="0 0 52 52" xmlns="http://www.w3.org/2000/svg" xmlns:xlink="http://www.w3.org/1999/xlink"><title>2560CCA6-B7AC-4055-8E57-75687D00174A</title><defs><circle id="a" cx="23.744" cy="23.744" r="23.744"/><path id="c" d="M0 .435h63.19V40.84H0"/><path id="e" d="M0 .435h63.19V40.84H0z"/></defs><g transform="translate(1 1)" fill="none" fill-rule="evenodd"><circle stroke="#2D3A41" fill="#DAE7EA" cx="25" cy="25" r="25"/><g transform="translate(1.158 1.158)"><mask id="b" fill="#fff"><use xlink:href="#a"/></mask><use fill="#DAE7EA" xlink:href="#a"/><g mask="url(#b)"><path fill="#DAE7EB" d="M14.235 14.515V32.26l-3.825.014v-7.79l1.021-.72V22.18H-1.68v1.648l1.043.658v22.54h-2.394v1.84l59.62.276v-1.669h-2.29V28.936l1.242-.889v-1.791H31.007v1.791l1.336.836V37.2h-4.017V9.23z"/><g transform="translate(-4.749 8.548)"><mask id="d" fill="#fff"><use xlink:href="#c"/></mask><path d="M61.336 40.84a.245.245 0 0 1-.243-.246v-1.423h-2.045a.244.244 0 0 1-.243-.246V20.39c0-.08.038-.155.102-.201l1.139-.816v-1.419H35.999v1.41l1.22.762a.248.248 0 0 1 .116.21v8.317a.244.244 0 0 1-.243.246h-4.017a.244.244 0 0 1-.243-.246V1.035L19.226 6.138v17.575a.244.244 0 0 1-.241.246l-3.826.014a.243.243 0 0 1-.244-.246v-7.789c0-.08.04-.156.105-.202l.917-.647v-1.21H3.31v1.264l.93.586c.07.045.114.124.114.209v22.539a.244.244 0 0 1-.242.246H1.959v1.595a.244.244 0 0 1-.243.246.244.244 0 0 1-.243-.246v-1.841c0-.136.11-.246.243-.246H3.87V16.075l-.93-.586a.247.247 0 0 1-.115-.208v-1.649c0-.136.11-.246.243-.246H16.18c.134 0 .243.11.243.246v1.586c0 .08-.039.156-.104.201l-.918.647v7.414l3.34-.012v-17.5c0-.104.063-.196.159-.232L32.99.45a.239.239 0 0 1 .223.03.246.246 0 0 1 .104.201v27.725h3.532v-7.934l-1.22-.763a.248.248 0 0 1-.116-.21v-1.791c0-.136.108-.246.243-.246h24.533a.247.247 0 0 1 .243.246v1.791c0 .08-.039.155-.103.201l-1.138.816v18.163h2.045c.134 0 .243.11.243.246v1.67a.245.245 0 0 1-.243.245" fill="#2D3A41" mask="url(#d)"/><mask id="f" fill="#fff"><use xlink:href="#e"/></mask><path fill="#75A6B6" mask="url(#f)" d="M8.565 22.234H6.413v-4.393h2.152z"/><path d="M6.655 21.988h1.668v-3.901H6.655v3.901zm1.91.492H6.413a.244.244 0 0 1-.243-.246v-4.393c0-.136.108-.246.243-.246h2.152c.134 0 .243.11.243.246v4.393a.244.244 0 0 1-.243.246z" fill="#4E626A" mask="url(#f)"/><path fill="#24D4A9" mask="url(#f)" d="M12.882 22.234H10.73v-4.393h2.152z"/><path d="M10.973 21.988h1.667v-3.901h-1.667v3.901zm1.91.492H10.73a.244.244 0 0 1-.242-.246v-4.393c0-.136.108-.246.242-.246h2.152c.134 0 .243.11.243.246v4.393a.244.244 0 0 1-.243.246z" fill="#4E626A" mask="url(#f)"/><path fill="#99B3B7" mask="url(#f)" d="M18.984 5.967v34.627h14.09V.681z"/><path d="M19.227 40.348h13.605V1.035L19.227 6.138v34.21zm13.848.492H18.984a.245.245 0 0 1-.243-.246V5.967c0-.103.063-.195.158-.23L32.99.45a.245.245 0 0 1 .327.23v39.914a.245.245 0 0 1-.242.246z" fill="#2D3A41" mask="url(#f)"/><path fill="#F6F9FF" mask="url(#f)" d="M30.097 18.016h-2.153v-4.393h2.153z"/><path d="M28.187 17.77h1.667v-3.9h-1.667v3.9zm1.91.492h-2.153a.244.244 0 0 1-.243-.246v-4.393c0-.135.109-.246.243-.246h2.153c.134 0 .243.11.243.246v4.393a.244.244 0 0 1-.243.246z" fill="#4E626A" mask="url(#f)"/><path fill="#24D4A9" mask="url(#f)" d="M30.097 24.686h-2.153v-4.394h2.153z"/><path d="M28.187 24.44h1.667v-3.902h-1.667v3.902zm1.91.492h-2.153a.245.245 0 0 1-.243-.246v-4.394c0-.136.109-.246.243-.246h2.153c.134 0 .243.11.243.246v4.394a.245.245 0 0 1-.243.246z" fill="#4E626A" mask="url(#f)"/><path fill="#F6F9FF" mask="url(#f)" d="M8.565 33.685H6.413v-4.393h2.152z"/><path d="M6.655 33.44h1.668v-3.902H6.655v3.901zm1.91.491H6.413a.245.245 0 0 1-.243-.246v-4.393c0-.136.108-.246.243-.246h2.152c.134 0 .243.11.243.246v4.393a.245.245 0 0 1-.243.246z" fill="#4E626A" mask="url(#f)"/><path fill="#75A6B6" mask="url(#f)" d="M12.882 33.685H10.73v-4.393h2.152z"/><path d="M10.973 33.44h1.667v-3.902h-1.667v3.901zm1.91.491H10.73a.244.244 0 0 1-.242-.246v-4.393c0-.136.108-.246.242-.246h2.152c.134 0 .243.11.243.246v4.393a.245.245 0 0 1-.243.246z" fill="#4E626A" mask="url(#f)"/><path fill="#F6F9FF" mask="url(#f)" d="M8.565 26.628H6.413V24.43h2.152z"/><path d="M6.655 26.382h1.668v-1.705H6.655v1.705zm1.91.492H6.413a.244.244 0 0 1-.243-.246V24.43c0-.136.108-.246.243-.246h2.152c.134 0 .243.11.243.246v2.197a.244.244 0 0 1-.243.246z" fill="#4E626A" mask="url(#f)"/><path fill="#75A6B6" mask="url(#f)" d="M12.882 26.628H10.73V24.43h2.152z"/><path d="M10.973 26.382h1.667v-1.705h-1.667v1.705zm1.91.492H10.73a.244.244 0 0 1-.242-.246V24.43c0-.136.108-.246.242-.246h2.152c.134 0 .243.11.243.246v2.197a.244.244 0 0 1-.243.246z" fill="#4E626A" mask="url(#f)"/><path fill="#F6F9FF" mask="url(#f)" d="M30.097 11.518h-2.153V9.32h2.153z"/><path d="M28.187 11.272h1.667V9.567h-1.667v1.705zm1.91.492h-2.153a.244.244 0 0 1-.243-.246V9.32c0-.135.109-.246.243-.246h2.153c.134 0 .243.11.243.246v2.197a.244.244 0 0 1-.243.246z" fill="#4E626A" mask="url(#f)"/><path fill="#75A6B6" mask="url(#f)" d="M30.097 29.18h-2.153v-2.196h2.153z"/><path d="M28.187 28.934h1.667V27.23h-1.667v1.704zm1.91.492h-2.153a.245.245 0 0 1-.243-.246v-2.196c0-.136.109-.246.243-.246h2.153c.134 0 .243.11.243.246v2.196a.245.245 0 0 1-.243.246z" fill="#4E626A" mask="url(#f)"/><path fill="#F6F9FF" mask="url(#f)" d="M30.097 33.685h-2.153V31.49h2.153z"/><path d="M28.187 33.44h1.667v-1.705h-1.667v1.704zm1.91.491h-2.153a.245.245 0 0 1-.243-.246V31.49c0-.136.109-.246.243-.246h2.153c.134 0 .243.11.243.246v2.196a.245.245 0 0 1-.243.246z" fill="#4E626A" mask="url(#f)"/><path fill="#F6F9FF" mask="url(#f)" d="M25.456 34.974h-3.735V9.204h3.735z"/><path d="M21.964 34.728h3.249V9.45h-3.25v25.278zm3.492.492h-3.735a.245.245 0 0 1-.243-.246V9.204c0-.136.109-.246.243-.246h3.735c.134 0 .243.11.243.246v25.77a.245.245 0 0 1-.243.246z" fill="#4E626A" mask="url(#f)"/><path d="M24.377 13.624l-1.523 5.633" fill="#24D4A9" mask="url(#f)"/><path d="M22.854 19.38a.123.123 0 0 1-.117-.155l1.523-5.634a.122.122 0 0 1 .149-.086.123.123 0 0 1 .085.151L22.97 19.29a.122.122 0 0 1-.117.09" fill="#4E626A" mask="url(#f)"/><path d="M24.35 24.431l-1.523 5.634" fill="#24D4A9" mask="url(#f)"/><path d="M22.827 30.188a.123.123 0 0 1-.117-.155l1.523-5.635a.122.122 0 0 1 .15-.085.123.123 0 0 1 .084.15l-1.523 5.635a.122.122 0 0 1-.117.09" fill="#4E626A" mask="url(#f)"/><path d="M62.947 40.84H.243A.244.244 0 0 1 0 40.594c0-.136.109-.246.243-.246h62.704c.134 0 .243.11.243.246a.245.245 0 0 1-.243.246" fill="#2D3A41" mask="url(#f)"/><path fill="#75A6B6" mask="url(#f)" d="M43.968 34.67h-4.502V23.073h4.502z"/><path d="M39.71 34.423h4.016V23.32H39.71v11.103zm4.258.492h-4.501a.244.244 0 0 1-.243-.246V23.074c0-.137.108-.246.243-.246h4.501c.135 0 .243.11.243.246v11.595a.244.244 0 0 1-.243.246z" fill="#4E626A" mask="url(#f)"/><path fill="#F6F9FF" mask="url(#f)" d="M50.268 34.67h-4.503V23.073h4.503z"/><path d="M46.008 34.423h4.017V23.32h-4.017v11.103zm4.26.492h-4.503a.245.245 0 0 1-.243-.246V23.074c0-.137.109-.246.243-.246h4.503c.134 0 .243.11.243.246v11.595a.245.245 0 0 1-.243.246z" fill="#4E626A" mask="url(#f)"/><path fill="#75A6B6" mask="url(#f)" d="M56.567 34.67h-4.502V23.073h4.502z"/><path d="M52.308 34.423h4.016V23.32h-4.016v11.103zm4.259.492h-4.502a.245.245 0 0 1-.243-.246V23.074c0-.137.109-.246.243-.246h4.502c.134 0 .243.11.243.246v11.595a.245.245 0 0 1-.243.246z" fill="#4E626A" mask="url(#f)"/><path d="M42.035 24.851l-.634 2.346" fill="#24D4A9" mask="url(#f)"/><path d="M41.4 27.32a.123.123 0 0 1-.117-.155l.634-2.346a.123.123 0 0 1 .15-.086.124.124 0 0 1 .085.151l-.634 2.345a.122.122 0 0 1-.117.09" fill="#4E626A" mask="url(#f)"/><path d="M42.035 30.62l-.634 2.345" fill="#24D4A9" mask="url(#f)"/><path d="M41.4 33.088a.123.123 0 0 1-.117-.155l.634-2.346a.124.124 0 0 1 .15-.086.124.124 0 0 1 .085.152l-.634 2.344a.122.122 0 0 1-.117.091" fill="#4E626A" mask="url(#f)"/><path d="M48.333 24.851l-.633 2.346" fill="#24D4A9" mask="url(#f)"/><path d="M47.7 27.32a.123.123 0 0 1-.117-.155l.633-2.346a.123.123 0 0 1 .15-.086.124.124 0 0 1 .085.151l-.634 2.345a.122.122 0 0 1-.117.09" fill="#4E626A" mask="url(#f)"/><path d="M48.333 30.62l-.633 2.345" fill="#24D4A9" mask="url(#f)"/><path d="M47.7 33.088a.123.123 0 0 1-.117-.155l.633-2.346a.122.122 0 0 1 .15-.086.124.124 0 0 1 .085.152l-.634 2.344a.122.122 0 0 1-.117.091" fill="#4E626A" mask="url(#f)"/><path d="M54.633 24.851L54 27.197" fill="#24D4A9" mask="url(#f)"/><path d="M54 27.32a.123.123 0 0 1-.117-.155l.633-2.346a.123.123 0 0 1 .15-.086.124.124 0 0 1 .084.151l-.633 2.345a.122.122 0 0 1-.118.09" fill="#4E626A" mask="url(#f)"/><path d="M54.633 30.62L54 32.965" fill="#24D4A9" mask="url(#f)"/><path d="M54 33.088a.123.123 0 0 1-.117-.155l.633-2.346a.122.122 0 0 1 .15-.086.124.124 0 0 1 .084.152l-.633 2.344a.122.122 0 0 1-.118.091" fill="#4E626A" mask="url(#f)"/><path fill="#05D5A8" mask="url(#f)" d="M3.067 13.632v1.649l1.044.657h11.047l1.022-.72v-1.586z"/><path d="M4.18 15.692h10.902l.856-.603v-1.21H3.31v1.265l.87.548zm10.978.492H4.111a.243.243 0 0 1-.128-.037l-1.044-.657a.247.247 0 0 1-.115-.21v-1.648c0-.136.11-.246.243-.246H16.18c.134 0 .243.11.243.246v1.585c0 .081-.039.157-.104.202l-1.022.72a.24.24 0 0 1-.139.045z" fill="#2D3A41" mask="url(#f)"/><path fill="#05D5A8" mask="url(#f)" d="M37.092 20.335l-1.336-.835v-1.792h24.533V19.5l-1.241.835z"/><path d="M37.16 20.089h21.814l1.072-.721v-1.414H35.999v1.408l1.162.727zm21.888.492H37.092a.24.24 0 0 1-.128-.036l-1.336-.836a.248.248 0 0 1-.115-.21v-1.791c0-.136.109-.246.243-.246h24.533c.134 0 .243.11.243.246V19.5c0 .082-.041.158-.11.204l-1.24.836a.237.237 0 0 1-.134.041zM18.984 6.021l14.09-5.34v2.242l-14.09 5.322z" fill="#2D3A41" mask="url(#f)"/><path d="M19.227 6.192v1.699l13.605-5.139V1.036L19.227 6.192zm-.243 2.299a.24.24 0 0 1-.139-.044.247.247 0 0 1-.104-.202V6.02c0-.103.063-.194.158-.23L32.989.45a.243.243 0 0 1 .329.23v2.242a.246.246 0 0 1-.158.23L19.069 8.477a.254.254 0 0 1-.085.015z" fill="#2D3A41" mask="url(#f)"/></g></g></g></g></svg>