<?xml version="1.0" encoding="UTF-8" standalone="no"?>
<svg width="72px" height="62px" viewBox="0 0 72 62" version="1.1" xmlns="http://www.w3.org/2000/svg" xmlns:xlink="http://www.w3.org/1999/xlink">
    <!-- Generator: sketchtool 41.2 (35397) - http://www.bohemiancoding.com/sketch -->
    <title>88D907FC-1F7B-468D-90EF-8C392CB1D43C</title>
    <desc>Created with sketchtool.</desc>
    <defs>
        <circle id="path-1" cx="30" cy="30" r="30"></circle>
        <circle id="path-3" cx="30" cy="30" r="30"></circle>
        <mask id="mask-4" maskContentUnits="userSpaceOnUse" maskUnits="objectBoundingBox" x="0" y="0" width="60" height="60" fill="white">
            <use xlink:href="#path-3"></use>
        </mask>
    </defs>
    <g id="Symbols" stroke="none" stroke-width="1" fill="none" fill-rule="evenodd">
        <g id="add-coworkers" transform="translate(1.000000, 0.000000)">
            <g>
                <g transform="translate(6.000000, 0.000000)">
                    <mask id="mask-2" fill="white">
                        <use xlink:href="#path-1"></use>
                    </mask>
                    <use id="Mask" fill="#A6D6E1" xlink:href="#path-1"></use>
                    <g id="Oval-2" mask="url(#mask-2)" stroke-linecap="square" stroke-width="2" stroke="#2D3A41">
                        <use mask="url(#mask-4)" xlink:href="#path-3"></use>
                    </g>
                </g>
                <g id="Page-1" transform="translate(0.000000, 18.000000)">
                    <g id="Group-5" transform="translate(0.000000, 8.000000)">
                        <path d="M15.2411861,14.1328164 C11.366484,14.1328164 8.22787931,10.9894212 8.22787931,7.10941779 C8.22787931,3.22461044 11.366484,0.0812152195 15.2411861,0.0812152195 C19.1158883,0.0812152195 22.2568906,3.22461044 22.2568906,7.10941779 C22.2568906,10.9894212 19.1158883,14.1328164 15.2411861,14.1328164 Z" id="Fill-17" stroke="#2D3A41" fill="#FFFFFF"></path>
                        <g id="Group-16" transform="translate(0.000000, 16.716660)" stroke="#2D3A41">
                            <path d="M0.451877934,13.6431583 C0.451877934,6.37328808 4.56098749,0.482922146 15.240939,0.482922146 C25.9208904,0.482922146 30.0318075,6.37328808 30.0318075,13.6431583 C30.0318075,13.6431583 20.1204334,16 15.1647463,16 C10.2604569,16 0.451877934,13.6431583 0.451877934,13.6431583 Z" id="Fill-13" fill="#FFDD18"></path>
                            <polyline id="Path-6" stroke-linecap="square" points="9.86689346 1.21098617 14.9594119 4.6849305 19.8427619 1.21098617"></polyline>
                            <path d="M15.1500244,4.5 L15.1500244,15.7833405" id="Line" stroke-linecap="square"></path>
                        </g>
                        <path d="M11.9107782,1.53945218 C11.9107782,1.53945218 14.688187,4.8033391 17.5111051,5.32142706 C20.3340232,5.83951502 22.1030548,6.13857575 22.1030548,6.13857575 C22.1030548,6.13857575 20.5322013,1.53945218 19.3998507,1.53945218 C18.8878427,1.53945218 15.9915228,-0.0836267741 14.6962576,0.0710505532 C13.4009925,0.22572788 11.9107782,1.53945218 11.9107782,1.53945218 Z" id="Path-5" fill="#2D3A41"></path>
                    </g>
                    <g id="Group-3-Copy" transform="translate(41.000000, 8.000000)">
                        <g id="Group-28" transform="translate(0.191731, 15.722653)" stroke="#2D3A41" fill="#77A6B5">
                            <path d="M0.368942299,13.957786 C0.368942299,11.0852887 0.368609082,9.45661964 2.02274464,6.28895767 C3.75839732,2.96519079 7.3156039,0.36918619 14.6060709,0.36918619 C24.2611693,0.36918619 28.8445988,8.07123237 28.8445988,13.957786 C28.8445988,13.957786 22.0605235,16.157786 14.6936861,16.157786 C7.32684868,16.157786 0.368942299,13.957786 0.368942299,13.957786 Z" id="Fill-25"></path>
                        </g>
                        <g id="Group" transform="translate(7.238869, 0.000000)">
                            <path d="M14.4890954,7.05510313 C14.4890954,10.853924 11.3865224,13.9333333 7.558788,13.9333333 C3.73168863,13.9333333 0.629750619,10.853924 0.629750619,7.05510313 C0.629750619,3.25249919 3.73168863,0.173720374 7.558788,0.173720374 C11.3865224,0.173720374 14.4890954,3.25249919 14.4890954,7.05510313" id="Fill-29" stroke="#2D3A41" fill="#EDF4FA"></path>
                            <path d="M1.96658424,3.53555971 L14.4582206,5.65987099 C14.4582206,5.65987099 13.7569623,3.85671298 12.6016081,2.47675825 C11.446254,1.09680352 10.0697947,0.370708595 9.31184787,0.370708595 C8.60598312,0.370708595 6.40265995,0.147037162 4.92168926,0.841411252 C3.44071858,1.53578534 1.96658424,3.53555971 1.96658424,3.53555971 Z" id="Path-8" fill="#2D3A41"></path>
                            <path d="M11.7894692,31.086987 L9.03512222,20.1067568 L9.63055157,18.2316467 L9.03512222,16.3593155 C9.03512222,16.3593155 9.02392731,16.0918396 7.55879328,16.0918396 C6.48128305,16.0918396 6.15802999,16.3593155 6.15802999,16.3593155 L5.4863353,18.2316467 L6.15802999,20.1067568 L3.18581153,31.086987 C3.18581153,31.086987 3.68135454,31.8203204 7.3952206,31.8203204 C11.1090867,31.8203204 11.7894692,31.086987 11.7894692,31.086987 Z" id="Fill-33" stroke="#3E525A" fill="#FFDD18"></path>
                            <path d="M8.1361313,23.8333333 L8.68183646,25.9676468" id="Line" stroke="#4E626A" stroke-linecap="square"></path>
                            <path d="M6.6361313,20.1666667 L8.8861313,20.1666667" id="Line" stroke="#3E525A" stroke-linecap="square"></path>
                        </g>
                    </g>
                    <g id="Group-3" transform="translate(16.000000, 0.000000)">
                        <g id="Group-28" transform="translate(0.255641, 21.439982)" stroke="#2D3A41" fill="#24D4A9">
                            <path d="M0.491923065,19.0333445 C0.491923065,15.1163027 0.491478775,12.8953904 2.69699285,8.57585137 C5.01119642,4.04344199 9.75413854,0.503435713 19.4747612,0.503435713 C34.3667203,0.503435713 38.4594651,11.006226 38.4594651,19.0333445 C38.4594651,19.0333445 29.4140314,22.0333445 19.5915815,22.0333445 C9.76913157,22.0333445 0.491923065,19.0333445 0.491923065,19.0333445 Z" id="Fill-25"></path>
                        </g>
                        <g id="Group" transform="translate(9.651825, 0.000000)">
                            <path d="M19.3187938,9.62059517 C19.3187938,14.8008055 15.1820298,19 10.078384,19 C4.97558484,19 0.839667492,14.8008055 0.839667492,9.62059517 C0.839667492,4.43522617 4.97558484,0.236891419 10.078384,0.236891419 C15.1820298,0.236891419 19.3187938,4.43522617 19.3187938,9.62059517" id="Fill-29" stroke="#2D3A41" fill="#EDF4FA"></path>
                            <path d="M15.7192923,42.3913459 L12.0468296,27.4183047 L12.8407354,24.8613364 L12.0468296,22.3081575 C12.0468296,22.3081575 12.0319031,21.9434177 10.078391,21.9434177 C8.64171074,21.9434177 8.21070665,22.3081575 8.21070665,22.3081575 L7.31511374,24.8613364 L8.21070665,27.4183047 L4.24774871,42.3913459 C4.24774871,42.3913459 4.90847272,43.3913459 9.86029413,43.3913459 C14.8121155,43.3913459 15.7192923,42.3913459 15.7192923,42.3913459 Z" id="Fill-33" stroke="#3E525A" fill="#A6D6E1"></path>
                            <path d="M10.8481751,32.5 L11.5757819,35.4104275" id="Line" stroke="#4E626A" stroke-linecap="square"></path>
                            <path d="M8.84817507,27.5 L11.8481751,27.5" id="Line" stroke="#3E525A" stroke-linecap="square"></path>
                            <path d="M1.03414332,7.96628725 C1.03414332,7.96628725 3.61826163,8.05830913 7.52669813,6.63233423 C11.4351346,5.20635933 14.2285295,3.15237677 14.2285295,3.15237677 C14.2285295,3.15237677 14.301001,4.54995726 15.2703453,5.4443372 C16.2396896,6.33871714 18.8965402,6.91494267 18.8965402,6.91494267 C18.8965402,6.91494267 18.6395182,5.00915407 17.2790365,3.59796444 C15.4988385,1.75141475 12.4712653,0.280986198 12.1416565,0.280986198 C11.5601505,0.280986198 7.79636129,-0.282533846 5.4212654,1.53814286 C3.04616951,3.35881957 1.03414332,7.96628725 1.03414332,7.96628725 Z" id="Path-4" fill="#2D3A41"></path>
                        </g>
                    </g>
                </g>
            </g>
        </g>
    </g>
</svg>