<?xml version="1.0" encoding="UTF-8" standalone="no"?>
<svg width="80px" height="80px" viewBox="0 0 80 80" version="1.1" xmlns="http://www.w3.org/2000/svg" xmlns:xlink="http://www.w3.org/1999/xlink">
    <!-- Generator: sketchtool 41.2 (35397) - http://www.bohemiancoding.com/sketch -->
    <title>0CB96D9E-7618-4991-B428-1EF03BA48362</title>
    <desc>Created with sketchtool.</desc>
    <defs>
        <polygon id="path-1" points="79.3846154 46.7692308 0 46.7692308 0 23.5204308 0 0.271630769 79.3846154 0.271630769 79.3846154 46.7692308"></polygon>
    </defs>
    <g id="Candidate-Signup-FromTopNav&amp;ForEvent" stroke="none" stroke-width="1" fill="none" fill-rule="evenodd">
        <g id="Candidate-SignUp-20161209-D-04" transform="translate(-600.000000, -238.000000)">
            <g id="Group-3" transform="translate(339.000000, 193.000000)">
                <g id="confirmation" transform="translate(261.000000, 45.000000)">
                    <polygon id="Fill-1" fill="#44585F" points="0 79.0978462 79.3846154 79.0978462 79.3846154 32.944 0 32.944"></polygon>
                    <polygon id="Fill-2" fill="#44585F" points="1.10153846 32.3286154 39.8375385 0.398769231 78.5741538 32.3286154"></polygon>
                    <path d="M39.8376,-0.000184615385 L0.244984615,32.6361231 L79.4308308,32.6361231 L39.8376,-0.000184615385 Z M39.8376,0.797353846 L77.7169846,32.0207385 L1.95821538,32.0207385 L39.8376,0.797353846 Z" id="Fill-3" fill="#283339"></path>
                    <g id="Group-15" transform="translate(0.000000, 20.636308)">
                        <path d="M62.8329231,22.9759385 C62.8329231,35.6633231 52.548,45.9488615 39.8593846,45.9488615 C27.1713846,45.9488615 16.8864615,35.6633231 16.8864615,22.9759385 C16.8864615,10.2879385 27.1713846,0.0024 39.8593846,0.0024 C52.548,0.0024 62.8329231,10.2879385 62.8329231,22.9759385" id="Fill-4" fill="#FFE218"></path>
                        <path d="M62.8329231,22.9759385 C62.8329231,35.6633231 52.548,45.9488615 39.8593846,45.9488615 C27.1713846,45.9488615 16.8864615,35.6633231 16.8864615,22.9759385 C16.8864615,10.2879385 27.1713846,0.0024 39.8593846,0.0024 C52.548,0.0024 62.8329231,10.2879385 62.8329231,22.9759385 Z" id="Stroke-6" stroke="#283339"></path>
                        <polyline id="Stroke-8" stroke="#283339" stroke-width="3" stroke-linecap="round" stroke-linejoin="round" points="29.5577231 27.3569846 34.8838769 33.9219077 51.1577231 15.9132923"></polyline>
                        <polygon id="Fill-10" fill="#69A1B2" points="0.615384615 58.4615385 0.615384615 13.2713846 24.9064615 35.0769231 55.5052308 35.0769231 79.3846154 13.2738462 79.3846154 58.4615385"></polygon>
                        <g id="Group-14" transform="translate(0.000000, 12.307692)">
                            <mask id="mask-2" fill="white">
                                <use xlink:href="#path-1"></use>
                            </mask>
                            <g id="Clip-13"></g>
                            <path d="M79.3846154,0.271630769 L55.3864615,22.7694769 L25.0252308,22.7694769 L0,0.271630769 L0,46.7694769 L79.3846154,46.7694769 L79.3846154,0.271630769 Z M0.690461538,1.65686154 L24.4209231,23.0722462 L24.7883077,23.3848615 L25.0252308,23.3848615 L55.3864615,23.3848615 L55.624,23.3848615 L55.5710769,23.0710154 L78.7692308,1.66116923 L78.7692308,46.1540923 L0.615384615,46.1540923 L0.615384615,1.8464 L0.690461538,1.65686154 Z" id="Fill-12" fill="#283339" mask="url(#mask-2)"></path>
                        </g>
                    </g>
                </g>
            </g>
        </g>
    </g>
</svg>