<?xml version="1.0" encoding="UTF-8" standalone="no"?>
<svg width="14px" height="15px" viewBox="0 0 14 15" version="1.1" xmlns="http://www.w3.org/2000/svg" xmlns:xlink="http://www.w3.org/1999/xlink">
    <!-- Generator: sketchtool 40.3 (33839) - http://www.bohemiancoding.com/sketch -->
    <title>72066EC4-8433-48CC-A8ED-A61621B34A1F</title>
    <desc>Created with sketchtool.</desc>
    <defs></defs>
    <g id="Symbols" stroke="none" stroke-width="1" fill="none" fill-rule="evenodd">
        <g id="Edit" transform="translate(-2.000000, 0.000000)" fill="#77A6B5">
            <g transform="translate(8.058071, 8.443623) rotate(40.000000) translate(-8.058071, -8.443623) translate(5.058071, -0.056377)">
                <path d="M5.14285714,1.5 L4.5,0.857142857 L4.5,11.1428571 L5.14285714,10.5 L0.857142857,10.5 L1.5,11.1428571 L1.5,0.857142857 L0.857142857,1.5 L5.14285714,1.5 Z M0.214285714,0.857142857 L0.214285714,11.1428571 C0.214285714,11.4978973 0.502102661,11.7857143 0.857142857,11.7857143 L5.14285714,11.7857143 C5.49789734,11.7857143 5.78571429,11.4978973 5.78571429,11.1428571 L5.78571429,0.857142857 C5.78571429,0.502102661 5.49789734,0.214285714 5.14285714,0.214285714 L0.857142857,0.214285714 C0.502102661,0.214285714 0.214285714,0.502102661 0.214285714,0.857142857 Z" id="Rectangle-10-Copy-3"></path>
                <path d="M5.14285714,1.5 L4.5,0.857142857 L4.5,3.42857143 L5.14285714,2.78571429 L0.857142857,2.78571429 L1.5,3.42857143 L1.5,0.857142857 L0.857142857,1.5 L5.14285714,1.5 Z M0.214285714,0.857142857 L0.214285714,3.42857143 C0.214285714,3.78361162 0.502102661,4.07142857 0.857142857,4.07142857 L5.14285714,4.07142857 C5.49789734,4.07142857 5.78571429,3.78361162 5.78571429,3.42857143 L5.78571429,0.857142857 C5.78571429,0.502102661 5.49789734,0.214285714 5.14285714,0.214285714 L0.857142857,0.214285714 C0.502102661,0.214285714 0.214285714,0.502102661 0.214285714,0.857142857 Z" id="Rectangle-10-Copy-4"></path>
                <path d="M1.43213177,10.8553627 L0.857142857,11.7857143 L5.14285714,11.7857143 L4.56786823,10.8553627 L2.42501109,15.141077 L3.57498891,15.141077 L1.43213177,10.8553627 Z M3.57498891,15.7160659 L5.71784605,11.4303516 C5.93156426,11.0029152 5.62074559,10.5 5.14285714,10.5 L0.857142857,10.5 C0.379254415,10.5 0.0684357402,11.0029152 0.282153949,11.4303516 L2.42501109,15.7160659 C2.66191955,16.1898828 3.33808045,16.1898828 3.57498891,15.7160659 Z" id="Triangle-2-Copy-2"></path>
            </g>
        </g>
    </g>
</svg>