<?xml version="1.0" encoding="UTF-8" standalone="no"?>
<svg width="26px" height="18px" viewBox="0 0 26 18" version="1.1" xmlns="http://www.w3.org/2000/svg" xmlns:xlink="http://www.w3.org/1999/xlink">
    <!-- Generator: sketchtool 41.2 (35397) - http://www.bohemiancoding.com/sketch -->
    <title>BF3E27AC-AA5C-4A35-8ED7-D8CBFF8F6A0A</title>
    <desc>Created with sketchtool.</desc>
    <defs></defs>
    <g id="01-soc-comp-like-final" stroke="none" stroke-width="1" fill="none" fill-rule="evenodd">
        <g id="Society-View-Companies-09" transform="translate(-504.000000, -654.000000)" fill="#2D3A41">
            <g id="Group-5" transform="translate(131.000000, 631.000000)">
                <g id="email-company" transform="translate(373.000000, 23.000000)">
                    <g id="Group-15-Copy">
                        <path d="M1.5,2.00668304 L1.5,15.6361741 C1.5,15.9172246 1.72448679,16.1428571 1.99700466,16.1428571 L24.0029953,16.1428571 C24.2753773,16.1428571 24.5,15.9172152 24.5,15.6361741 L24.5,2.00668304 C24.5,1.72563258 24.2755132,1.5 24.0029953,1.5 L1.99700466,1.5 C1.72462275,1.5 1.5,1.72564196 1.5,2.00668304 Z M0,2.00668304 C0,0.898422601 0.894978851,0 1.99700466,0 L24.0029953,0 C25.1059106,0 26,0.899167359 26,2.00668304 L26,15.6361741 C26,16.7444345 25.1050211,17.6428571 24.0029953,17.6428571 L1.99700466,17.6428571 C0.89408944,17.6428571 0,16.7436898 0,15.6361741 L0,2.00668304 Z" id="Rectangle-3"></path>
                        <polygon id="Path-2" points="2.42333629 0.254155875 1.55415588 1.47666371 13.5934171 10.0363553 24.4531673 1.49500044 23.5258515 0.315981618 13.5480831 8.16364469"></polygon>
                    </g>
                </g>
            </g>
        </g>
    </g>
</svg>