<?xml version="1.0" encoding="UTF-8" standalone="no"?>
<svg width="20px" height="26px" viewBox="0 0 20 26" version="1.1" xmlns="http://www.w3.org/2000/svg" xmlns:xlink="http://www.w3.org/1999/xlink">
    <!-- Generator: sketchtool 41.2 (35397) - http://www.bohemiancoding.com/sketch -->
    <title>F126AAFB-EC2F-42D8-88D8-303342A33471</title>
    <desc>Created with sketchtool.</desc>
    <defs></defs>
    <g id="Candidate-Signup-FromTopNav&amp;ForEvent" stroke="none" stroke-width="1" fill="none" fill-rule="evenodd">
        <g id="Candidate-SignUp-20161209-D-02" transform="translate(-466.000000, -469.000000)">
            <g id="Group-8" transform="translate(339.000000, 94.000000)">
                <g id="Group-9" transform="translate(101.000000, 208.000000)">
                    <g id="Joinnow-password-unfilled" transform="translate(27.000000, 168.000000)">
                        <polygon id="Stroke-1" stroke="#DAE7EB" stroke-width="2" points="17.9021739 23.0869565 0.391304348 23.0869565 0.391304348 10.0072174 17.9021739 10.0072174"></polygon>
                        <path d="M4.79347826,9.85593913 L4.79347826,3.97698261 C4.79347826,3.97698261 4.6713913,0.49046087 9.17765217,0.49046087 C13.6823478,0.49046087 13.5,3.97698261 13.5,3.97698261 L13.5,9.85593913" id="Stroke-3" stroke="#DAE7EB" stroke-width="2"></path>
                        <path d="M10.7282609,17.3390609 C10.7282609,18.1668754 10.0562609,18.8390609 9.22867466,18.8390609 C8.40026087,18.8390609 7.72826087,18.1668754 7.72826087,17.3390609 C7.72826087,16.5095907 8.40026087,15.8390609 9.22867466,15.8390609 C10.0562609,15.8390609 10.7282609,16.5095907 10.7282609,17.3390609" id="Fill-4" fill="#DAE7EB"></path>
                    </g>
                </g>
            </g>
        </g>
    </g>
</svg>