<?xml version="1.0" encoding="UTF-8" standalone="no"?>
<svg width="20px" height="20px" viewBox="0 0 20 20" version="1.1" xmlns="http://www.w3.org/2000/svg" xmlns:xlink="http://www.w3.org/1999/xlink">
    <!-- Generator: sketchtool 41.2 (35397) - http://www.bohemiancoding.com/sketch -->
    <title>C711D213-0143-4580-A562-2047ED22A3CA</title>
    <desc>Created with sketchtool.</desc>
    <defs></defs>
    <g id="Candidate-Signup-FromTopNav&amp;ForEvent" stroke="none" stroke-width="1" fill="none" fill-rule="evenodd">
        <g id="Candidate-SignUp-20161209-D-02" transform="translate(-708.000000, -531.000000)" fill="#24D4A9">
            <g id="Group-8" transform="translate(339.000000, 94.000000)">
                <g id="Group-9" transform="translate(101.000000, 208.000000)">
                    <g id="Group-10" transform="translate(268.000000, 229.000000)">
                        <g id="joinNow-upload-CV">
                            <polygon id="Path-3" points="13.9846182 13.1291092 15.0605486 12.0839424 10.0586454 6.93481207 4.93935839 11.993884 5.99372525 13.0608003 10.036895 9.06518793"></polygon>
                            <polygon id="Line" points="9 8.25 9 18.75 10.5 18.75 10.5 8.25"></polygon>
                            <path d="M10,19.75 C15.3847763,19.75 19.75,15.3847763 19.75,10 C19.75,4.61522369 15.3847763,0.25 10,0.25 C4.61522369,0.25 0.25,4.61522369 0.25,10 C0.25,15.3847763 4.61522369,19.75 10,19.75 Z M10,18.25 C5.44365081,18.25 1.75,14.5563492 1.75,10 C1.75,5.44365081 5.44365081,1.75 10,1.75 C14.5563492,1.75 18.25,5.44365081 18.25,10 C18.25,14.5563492 14.5563492,18.25 10,18.25 Z" id="Oval-3"></path>
                        </g>
                    </g>
                </g>
            </g>
        </g>
    </g>
</svg>