<svg xmlns="http://www.w3.org/2000/svg" width="23" height="23" viewBox="0 0 23 23">
    <path fill="none" fill-rule="evenodd" stroke="#77A6B5" d="M4.893 1c.077.067.18.12.225.204.851 1.584 1.695 3.172 2.54 4.76.194.366.148.655-.146.95-.343.345-.683.694-1.033 1.03-.408.393-.515.857-.365 1.394.156.563.451 1.059.763 1.547.865 1.354 1.951 2.517 3.12 3.609.868.813 1.84 1.483 2.867 2.072.373.215.768.384 1.203.433.411.045.756-.08 1.046-.376.43-.438.867-.869 1.3-1.303.275-.273.504-.305.836-.109 1.494.88 2.99 1.756 4.48 2.642.121.07.21.196.314.297v.158c-.052.074-.096.157-.16.22a844.024 844.024 0 0 1-3.068 3.069 1.483 1.483 0 0 1-.788.42 4.8 4.8 0 0 1-1.283.038c-.89-.08-1.727-.355-2.55-.684-1.07-.426-2.044-1.019-2.985-1.67-1.486-1.03-2.916-2.128-4.212-3.393-1.044-1.02-1.952-2.156-2.832-3.315-.922-1.212-1.75-2.484-2.334-3.9-.31-.753-.601-1.513-.74-2.32-.034-.196-.061-.394-.091-.592v-.763c.008-.032.022-.065.024-.098.025-.445.207-.811.523-1.125.983-.975 1.957-1.957 2.94-2.932.108-.106.252-.176.38-.263h.026z"/>
</svg>
