<?xml version="1.0" encoding="UTF-8" standalone="no"?>
<svg width="21px" height="10px" viewBox="0 0 21 10" version="1.1" xmlns="http://www.w3.org/2000/svg" xmlns:xlink="http://www.w3.org/1999/xlink">
    <!-- Generator: sketchtool 40.3 (33839) - http://www.bohemiancoding.com/sketch -->
    <title>6A0754CF-F69F-45A3-BF73-12E9C11545E7</title>
    <desc>Created with sketchtool.</desc>
    <defs></defs>
    <g id="Symbols" stroke="none" stroke-width="1" fill="none" fill-rule="evenodd">
        <g id="Event-Preview" fill="#75ABBB">
            <g id="Preview">
                <path d="M4.98023077,8.14242692 C3.23346963,8.14242692 1.81730769,6.72647463 1.81730769,4.98031154 C1.81730769,3.23344557 3.2333648,1.81738846 4.98023077,1.81738846 C6.72658807,1.81738846 8.14315385,3.23374456 8.14315385,4.98031154 C8.14315385,6.72617568 6.72648322,8.14242692 4.98023077,8.14242692 Z M4.98023077,0.60585 C2.56425058,0.60585 0.605769231,2.56433135 0.605769231,4.98031154 C0.605769231,7.395629 2.56439557,9.35396538 4.98023077,9.35396538 C7.39551715,9.35396538 9.35469231,7.3953702 9.35469231,4.98031154 C9.35469231,2.56459019 7.39566215,0.60585 4.98023077,0.60585 Z" id="Stroke-1"></path>
                <path d="M15.9298731,8.14242692 C14.1831119,8.14242692 12.76695,6.72647463 12.76695,4.98031154 C12.76695,3.23344557 14.1830071,1.81738846 15.9298731,1.81738846 C17.6760362,1.81738846 19.0919885,3.2335504 19.0919885,4.98031154 C19.0919885,6.72636982 17.6759314,8.14242692 15.9298731,8.14242692 Z M15.9298731,0.60585 C13.5138929,0.60585 11.5554115,2.56433135 11.5554115,4.98031154 C11.5554115,7.395629 13.5140379,9.35396538 15.9298731,9.35396538 C18.3450456,9.35396538 20.3035269,7.39548403 20.3035269,4.98031154 C20.3035269,2.56447634 18.3451905,0.60585 15.9298731,0.60585 Z" id="Stroke-3"></path>
                <path d="M9.54805216,4.89182073 C9.73829945,4.6425602 10.0032305,4.48542899 10.3933393,4.4496264 C10.7738771,4.41474377 11.0534672,4.57017672 11.2860789,4.88533848 C11.4269333,5.07617972 11.5128645,5.27193273 11.5443208,5.38061605 C11.6373344,5.70198333 11.9732565,5.88710054 12.2946237,5.79408693 C12.615991,5.70107331 12.8011082,5.36515122 12.7080946,5.04378395 C12.6401906,4.80917162 12.5000731,4.48998115 12.2608627,4.16587892 C11.7957033,3.53564222 11.1298834,3.1654919 10.2826799,3.24315222 C9.54090926,3.31122891 8.97344604,3.64779263 8.58497943,4.15675858 C8.32382982,4.49891478 8.19214589,4.83905879 8.14140594,5.09391927 C8.0760813,5.42203685 8.28911707,5.7409848 8.61723465,5.80630944 C8.94535223,5.87163409 9.26430018,5.65859832 9.32962483,5.33048073 C9.34736261,5.24138603 9.41541776,5.06559729 9.54805216,4.89182073 Z" id="Stroke-5"></path>
                <path d="M16.3817808,3.67343385 C16.5106442,3.65741805 16.6971935,3.71434385 16.9234392,3.96337062 C16.9779137,4.02333032 17.0317525,4.092789 17.0846062,4.17252353 C17.3217871,4.53217777 17.3595826,4.89073726 17.2860361,5.20554129 C17.2759509,5.24870947 17.2681093,5.2726779 17.2679193,5.27314243 C17.1412571,5.5827957 17.2896007,5.93649927 17.599254,6.06316146 C17.9089072,6.18982365 18.2626108,6.04148007 18.389273,5.7318268 C18.4127453,5.67444355 18.4403973,5.58992276 18.4658056,5.48116661 C18.609327,4.86684662 18.5361886,4.17299596 18.095222,3.50433258 C18.0080638,3.37284382 17.9165413,3.2547683 17.82016,3.14868222 C17.3092929,2.58637498 16.7292847,2.40938455 16.2323544,2.47114553 C16.1715216,2.47997935 16.1715216,2.47997935 16.1370641,2.4874678 C15.8110369,2.56253248 15.6075916,2.88768172 15.6826563,3.21370895 C15.7577209,3.53973617 16.0828702,3.74318151 16.4088974,3.66811682 C16.3863896,3.67285395 16.3863896,3.67285395 16.3817808,3.67343385 Z" id="Stroke-7"></path>
            </g>
        </g>
    </g>
</svg>