<?xml version="1.0" encoding="UTF-8" standalone="no"?>
<svg width="25px" height="22px" viewBox="0 0 25 22" version="1.1" xmlns="http://www.w3.org/2000/svg" xmlns:xlink="http://www.w3.org/1999/xlink">
    <!-- Generator: sketchtool 41.2 (35397) - http://www.bohemiancoding.com/sketch -->
    <title>61504E09-7CF8-4239-A7CA-01AA6816D73F</title>
    <desc>Created with sketchtool.</desc>
    <defs></defs>
    <g id="CandidateOpportunities" stroke="none" stroke-width="1" fill="none" fill-rule="evenodd">
        <g id="Events-Filter-20161207-03" transform="translate(-914.000000, -276.000000)" fill="#FFFFFF">
            <g id="Group-9" transform="translate(320.000000, 256.000000)">
                <path d="M603.920729,39.3287671 C609.25822,39.3287671 613.585112,35.0018752 613.585112,29.6643836 C613.585112,24.3268919 609.25822,20 603.920729,20 C598.583237,20 594.256345,24.3268919 594.256345,29.6643836 C594.256345,35.0018752 598.583237,39.3287671 603.920729,39.3287671 Z M603.920729,37.3287671 C599.687807,37.3287671 596.256345,33.8973057 596.256345,29.6643836 C596.256345,25.4314614 599.687807,22 603.920729,22 C608.153651,22 611.585112,25.4314614 611.585112,29.6643836 C611.585112,33.8973057 608.153651,37.3287671 603.920729,37.3287671 Z M611.426208,35.0109589 L610.626208,34.4109589 L610.026208,35.2109589 L610.826208,35.8109589 L611.426208,35.0109589 Z M616.656345,40.1835616 L617.256345,39.3835616 L616.456345,38.7835616 L616.00429,39.3863014 L616.80429,39.9863014 L617.40429,39.1863014 L610.275523,33.839726 L609.075523,35.439726 L617.00429,41.3863014 L618.656345,39.1835616 L610.426208,33.0109589 L608.774153,35.2136986 L610.374153,36.4136986 L610.826208,35.8109589 L616.656345,40.1835616 Z" id="search"></path>
            </g>
        </g>
    </g>
</svg>