<?xml version="1.0" encoding="UTF-8" standalone="no"?>
<svg width="60px" height="55px" viewBox="0 0 60 55" version="1.1" xmlns="http://www.w3.org/2000/svg" xmlns:xlink="http://www.w3.org/1999/xlink">
    <!-- Generator: sketchtool 41.2 (35397) - http://www.bohemiancoding.com/sketch -->
    <title>3B14A961-F81A-401C-8E8C-2261D58139B4</title>
    <desc>Created with sketchtool.</desc>
    <defs></defs>
    <g id="02-society-event-lifecycle-final" stroke="none" stroke-width="1" fill="none" fill-rule="evenodd">
        <g id="20161215-Society-CreateEvent-D-17" transform="translate(-611.000000, -1088.000000)">
            <g id="Group" transform="translate(259.000000, 1058.000000)">
                <g id="Soc-Event-Attendees" transform="translate(352.000000, 31.000000)">
                    <g id="Group-22">
                        <path d="M54.7110088,24.8099659 C54.7110088,38.5111382 43.5825874,49.6199318 29.8550132,49.6199318 C16.127439,49.6199318 5,38.5111382 5,24.8099659 C5,11.1078131 16.127439,0 29.8550132,0 C43.5825874,0 54.7110088,11.1078131 54.7110088,24.8099659" id="Fill-43" stroke="#2D3A41" fill="#24D4A9"></path>
                        <g id="Group-14" transform="translate(0.000000, 4.000000)">
                            <g id="Group-21-Copy" transform="translate(0.055329, 10.735374)">
                                <g id="Group-20">
                                    <path d="M20.1159055,6.94856356 C20.1159055,10.3904517 17.3510254,13.1835064 13.941292,13.1835064 C10.5277541,13.1835064 7.76287402,10.3904517 7.76287402,6.94856356 C7.76287402,3.50475583 10.5277541,0.715540318 13.941292,0.715540318 C17.3510254,0.715540318 20.1159055,3.50475583 20.1159055,6.94856356" id="Fill-47" fill="#FFFFFF"></path>
                                    <path d="M13.9411018,1.01346616 C10.6949594,1.01346616 8.05562603,3.67502659 8.05562603,6.94894749 C8.05562603,10.2238282 10.6949594,12.8873082 13.9411018,12.8873082 C17.1834397,12.8873082 19.8227731,10.2238282 19.8227731,6.94894749 C19.8227731,3.67502659 17.1834397,1.01346616 13.9411018,1.01346616 M13.9411018,13.4814323 C10.3706305,13.4814323 7.46688824,10.5520841 7.46688824,6.94894749 C7.46688824,3.34965011 10.3706305,0.417422514 13.9411018,0.417422514 C17.5077686,0.417422514 20.4105598,3.34965011 20.4105598,6.94894749 C20.4105598,10.5520841 17.5077686,13.4814323 13.9411018,13.4814323" id="Fill-49" fill="#2D3A41"></path>
                                    <path d="M1.23948804,26.8009441 C1.23948804,20.6878975 6.76068821,16.4512845 13.9406262,16.4512845 C21.1167598,16.4512845 26.6398622,20.0237071 26.6398622,26.8009441" id="Fill-51" stroke="#2D3A41" fill="#D5F5ED"></path>
                                    <path d="M9.62391319,17.2197105 C9.62391319,17.2197105 10.6967666,19.3677712 13.8230689,19.3677712 C16.9455668,19.3677712 18.2105446,17.2101124 18.2105446,17.2101124" id="Stroke-55" stroke="#2D3A41" stroke-width="0.8" stroke-linecap="round" stroke-linejoin="round"></path>
                                    <path d="M7.83663589,6.78996567 L19.7455757,4.92585442 C19.7455757,4.92585442 18.186957,1.01365812 13.916468,1.01365812 C9.6488323,1.01365812 8.38861004,4.92585442 8.38861004,4.92585442" id="Fill-57" fill="#2D3A41"></path>
                                    <path d="M0.922768029,26.6322091 C0.922768029,26.6322091 7.23243934,30.31597 13.801764,30.31597 C20.3691864,30.31597 26.91188,26.6283698 26.91188,26.6283698" id="Fill-59" stroke="#2D3A41" fill="#D5F5ED"></path>
                                    <path d="M13.8226884,19.3680591 L13.8226884,30.6458576" id="Stroke-63" stroke="#2D3A41"></path>
                                </g>
                            </g>
                            <g id="Group-21-Copy-2" transform="translate(31.182997, 8.415374)">
                                <g id="Group-20">
                                    <path d="M20.771859,7.29933239 C20.771859,10.9149697 17.9168197,13.84902 14.3958993,13.84902 C10.8710504,13.84902 8.01601122,10.9149697 8.01601122,7.29933239 C8.01601122,3.6816786 10.8710504,0.751661344 14.3958993,0.751661344 C17.9168197,0.751661344 20.771859,3.6816786 20.771859,7.29933239" id="Fill-47" fill="#FFFFFF"></path>
                                    <path d="M14.3957029,1.06462671 C11.0437081,1.06462671 8.31830949,3.86054476 8.31830949,7.2997357 C8.31830949,10.7399349 11.0437081,13.5378695 14.3957029,13.5378695 C17.7437692,13.5378695 20.4691678,10.7399349 20.4691678,7.2997357 C20.4691678,3.86054476 17.7437692,1.06462671 14.3957029,1.06462671 M14.3957029,14.1619853 C10.7088033,14.1619853 7.71037372,11.0847614 7.71037372,7.2997357 C7.71037372,3.51874302 10.7088033,0.438494324 14.3957029,0.438494324 C18.078674,0.438494324 21.0761215,3.51874302 21.0761215,7.2997357 C21.0761215,11.0847614 18.078674,14.1619853 14.3957029,14.1619853" id="Fill-49" fill="#2D3A41"></path>
                                    <path d="M1.27990613,28.1538764 C1.27990613,21.7322385 6.98114544,17.281758 14.3952119,17.281758 C21.8053498,17.281758 27.5085533,21.0345193 27.5085533,28.1538764" id="Fill-51" stroke="#2D3A41" fill="#D5F5ED"></path>
                                    <path d="M9.93773645,18.0889747 C9.93773645,18.0889747 11.0455742,20.3454712 14.2738211,20.3454712 C17.4981396,20.3454712 18.8043667,18.0788921 18.8043667,18.0788921" id="Stroke-55" stroke="#2D3A41" stroke-width="0.8" stroke-linecap="round" stroke-linejoin="round"></path>
                                    <path d="M11.4421527,5.17451534 L20.0783801,5.17451534 C20.4828434,5.17451534 18.78001,1.06482836 14.3702659,1.06482836 C9.96346814,1.06482836 8.66215167,5.17451534 8.66215167,5.17451534 L11.4421527,5.17451534 Z" id="Fill-57" fill="#2D3A41"></path>
                                    <path d="M0.952858291,27.9766235 C0.952858291,27.9766235 7.46827975,31.8463435 14.2518215,31.8463435 C21.033399,31.8463435 27.7894413,27.9725904 27.7894413,27.9725904" id="Fill-59" stroke="#2D3A41" fill="#D5F5ED"></path>
                                    <path d="M14.2734283,20.3457737 L14.2734283,32.192884" id="Stroke-63" stroke="#2D3A41"></path>
                                </g>
                            </g>
                            <g id="Group-21" transform="translate(14.119805, 14.070703)">
                                <g id="Group-20">
                                    <path d="M23.1332914,7.99084809 C23.1332914,11.9490194 19.9536793,15.1610324 16.0324858,15.1610324 C12.1069172,15.1610324 8.92730513,11.9490194 8.92730513,7.99084809 C8.92730513,4.03046921 12.1069172,0.822871366 16.0324858,0.822871366 C19.9536793,0.822871366 23.1332914,4.03046921 23.1332914,7.99084809" id="Fill-47" fill="#FFFFFF"></path>
                                    <path d="M16.032267,1.16548608 C12.2992034,1.16548608 9.26396994,4.22628058 9.26396994,7.99128961 C9.26396994,11.7574024 12.2992034,14.8204045 16.032267,14.8204045 C19.7609556,14.8204045 22.796189,11.7574024 22.796189,7.99128961 C22.796189,4.22628058 19.7609556,1.16548608 16.032267,1.16548608 M16.032267,15.5036471 C11.9262251,15.5036471 8.58692147,12.1348967 8.58692147,7.99128961 C8.58692147,3.85209763 11.9262251,0.480035891 16.032267,0.480035891 C20.1339338,0.480035891 23.4721437,3.85209763 23.4721437,7.99128961 C23.4721437,12.1348967 20.1339338,15.5036471 16.032267,15.5036471" id="Fill-49" fill="#283339"></path>
                                    <path d="M1.42541124,30.8210858 C1.42541124,23.7910821 7.77479144,18.9189772 16.0317201,18.9189772 C24.2842737,18.9189772 30.6358415,23.0272632 30.6358415,30.8210858" id="Fill-51" stroke="#2D3A41" fill="#FFDD18"></path>
                                    <path d="M31.3125618,30.8210858 L30.6355134,30.8210858 C30.6355134,23.3617099 24.084878,19.2589428 16.0324858,19.2589428 C7.97790598,19.2589428 1.42508311,23.3617099 1.42508311,30.8210858 L0.746940868,30.8210858 C0.746940868,23.3617099 7.60383397,18.5757002 16.0324858,18.5757002 C24.4567625,18.5757002 31.3125618,23.3617099 31.3125618,30.8210858" id="Fill-53" fill="#283339"></path>
                                    <path d="M11.0675002,19.8026671 C11.0675002,19.8026671 12.3012815,22.2729369 15.8965292,22.2729369 C19.4874018,22.2729369 20.9421263,19.7916292 20.9421263,19.7916292" id="Stroke-55" stroke="#283339" stroke-linecap="round" stroke-linejoin="round"></path>
                                    <path d="M13.4594321,6.94124186 C17.6742212,6.94124186 21.8272482,5.66473258 22.3609748,5.66473258 C22.8947014,5.66473258 20.9150006,1.16570684 16.0039382,1.16570684 C11.0961571,1.16570684 9.64690155,5.66473258 9.64690155,5.66473258 C9.64690155,5.66473258 11.3171845,6.94124186 13.4594321,6.94124186 Z" id="Fill-57" fill="#283339"></path>
                                    <path d="M1.06118323,30.6270405 C1.06118323,30.6270405 8.31730524,34.8633655 15.8720286,34.8633655 C23.4245644,34.8633655 30.948662,30.6226253 30.948662,30.6226253" id="Fill-59" stroke="#2D3A41" fill="#FFDD18"></path>
                                    <path d="M15.8960917,35.6264117 C8.32824302,35.6264117 0.970399675,31.3812564 0.897116562,31.3382088 C0.716643223,31.2333493 0.654297887,31.0004508 0.759300557,30.8194301 C0.864303227,30.6362019 1.09509035,30.5754937 1.27446991,30.6792495 C1.34665924,30.7200895 8.53496702,34.8636966 15.8960917,34.8636966 C23.2604977,34.8636966 30.7145935,30.7134668 30.7889704,30.6704192 C30.9727251,30.5666634 31.2024184,30.6339943 31.303046,30.8194301 C31.4047673,31.0026583 31.3402344,31.2344531 31.1575735,31.3360013 C31.0810091,31.3790488 23.460659,35.6264117 15.8960917,35.6264117" id="Fill-61" fill="#2D3A41"></path>
                                    <path d="M15.8960917,22.273268 L15.8960917,35.2427362" id="Stroke-63" stroke="#2D3A41"></path>
                                </g>
                            </g>
                            <ellipse id="Oval-7" fill="#299C80" cx="23.4939546" cy="5.45462585" rx="4.84126984" ry="4.9484127"></ellipse>
                            <ellipse id="Oval-7" fill="#299C80" cx="35.5597142" cy="8.12229025" rx="4.84126984" ry="4.9484127"></ellipse>
                        </g>
                    </g>
                </g>
            </g>
        </g>
    </g>
</svg>