<?xml version="1.0" encoding="UTF-8" standalone="no"?>
<svg width="50px" height="51px" viewBox="0 0 50 51" version="1.1" xmlns="http://www.w3.org/2000/svg" xmlns:xlink="http://www.w3.org/1999/xlink">
    <!-- Generator: sketchtool 41.2 (35397) - http://www.bohemiancoding.com/sketch -->
    <title>BC9D548A-3C1D-4793-8D21-B7EAC2834AB1</title>
    <desc>Created with sketchtool.</desc>
    <defs>
        <ellipse id="path-1" cx="25" cy="25" rx="25" ry="25"></ellipse>
        <mask id="mask-2" maskContentUnits="userSpaceOnUse" maskUnits="objectBoundingBox" x="0" y="0" width="50" height="50" fill="white">
            <use xlink:href="#path-1"></use>
        </mask>
    </defs>
    <g id="02-society-event-lifecycle-final" stroke="none" stroke-width="1" fill="none" fill-rule="evenodd">
        <g id="20161215-Society-CreateEvent-D-17" transform="translate(-610.000000, -388.000000)">
            <g id="Soc-Event-Companies-Attending" transform="translate(610.000000, 388.000000)">
                <use id="Oval" stroke="#2D3A41" mask="url(#mask-2)" stroke-width="2" fill="#FFDD18" xlink:href="#path-1"></use>
                <g id="CompanyEventRegisterIllus" transform="translate(2.000000, 2.000000)">
                    <polygon id="Fill-1" fill="#24D4A9" points="22.8524516 7.17074047 22.8524516 27.9820894 18.2631774 27.9971774 18.2631774 18.8646408 19.4890645 18.0182771 19.4890645 16.1603006 3.75140323 16.1603006 3.75140323 18.0929985 5.00559677 18.8646408 5.00559677 45.2951833 2.13067742 45.2951833 2.13067742 47.4549194 42.5072903 47.7775147 42.5072903 45.2951833 39.7615645 45.2951833 39.7615645 0.971737537"></polygon>
                    <polyline id="Stroke-2" stroke="#4E626A" stroke-linecap="round" stroke-linejoin="round" points="2.13060484 47.4551349 2.13060484 45.2953988 5.00552419 45.2953988 5.00552419 18.8641378 3.75133065 18.0932141 3.75133065 16.1597977 19.4889919 16.1597977 19.4889919 18.0184927 18.2631048 18.8641378 18.2631048 27.997393 22.852379 27.9815865 22.852379 7.17095601 39.7622177 0.971953079 39.7622177 45.2953988 42.5072177 45.2953988 42.5072177 47.7777302"></polyline>
                    <polygon id="Fill-4" fill="#77A6B5" points="10.35 26.2480499 7.76685484 26.2480499 7.76685484 21.0958651 10.35 21.0958651"></polygon>
                    <polygon id="Stroke-5" stroke="#4E626A" stroke-linecap="round" stroke-linejoin="round" points="10.35 26.2480499 7.76685484 26.2480499 7.76685484 21.0958651 10.35 21.0958651"></polygon>
                    <polygon id="Fill-6" fill="#24D4A9" points="15.5308065 26.2480499 12.9469355 26.2480499 12.9469355 21.0958651 15.5308065 21.0958651"></polygon>
                    <polygon id="Stroke-7" stroke="#4E626A" stroke-linecap="round" stroke-linejoin="round" fill="#D5F5ED" points="15.5308065 26.2480499 12.9469355 26.2480499 12.9469355 21.0958651 15.5308065 21.0958651"></polygon>
                    <polygon id="Fill-8" fill="#24D4A9" points="36.1879839 21.301349 33.6048387 21.301349 33.6048387 16.1491642 36.1879839 16.1491642"></polygon>
                    <polygon id="Stroke-9" stroke="#4E626A" stroke-linecap="round" stroke-linejoin="round" fill="#77A6B5" points="36.1879839 21.301349 33.6048387 21.301349 33.6048387 16.1491642 36.1879839 16.1491642"></polygon>
                    <polygon id="Fill-10" fill="#24D4A9" points="36.1879839 29.1219501 33.6048387 29.1219501 33.6048387 23.9704839 36.1879839 23.9704839"></polygon>
                    <polygon id="Stroke-11" stroke="#4E626A" stroke-linecap="round" stroke-linejoin="round" fill="#77A6B5" points="36.1879839 29.1219501 33.6048387 29.1219501 33.6048387 23.9704839 36.1879839 23.9704839"></polygon>
                    <polygon id="Fill-12" fill="#24D4A9" points="10.35 39.6770674 7.76685484 39.6770674 7.76685484 34.5241642 10.35 34.5241642"></polygon>
                    <polygon id="Stroke-13" stroke="#4E626A" stroke-linecap="round" stroke-linejoin="round" fill="#D5F5ED" points="10.35 39.6770674 7.76685484 39.6770674 7.76685484 34.5241642 10.35 34.5241642"></polygon>
                    <polygon id="Fill-14" fill="#24D4A9" points="15.5308065 39.6770674 12.9469355 39.6770674 12.9469355 34.5241642 15.5308065 34.5241642"></polygon>
                    <polygon id="Stroke-15" stroke="#4E626A" stroke-linecap="round" stroke-linejoin="round" fill="#77A6B5" points="15.5308065 39.6770674 12.9469355 39.6770674 12.9469355 34.5241642 15.5308065 34.5241642"></polygon>
                    <polygon id="Fill-16" fill="#9AB3B7" points="10.35 31.4002346 7.76685484 31.4002346 7.76685484 28.823783 10.35 28.823783"></polygon>
                    <polygon id="Stroke-17" stroke="#4E626A" stroke-linecap="round" stroke-linejoin="round" points="10.35 31.4002346 7.76685484 31.4002346 7.76685484 28.823783 10.35 28.823783"></polygon>
                    <polygon id="Fill-18" fill="#77A6B5" points="15.5308065 31.4002346 12.9469355 31.4002346 12.9469355 28.823783 15.5308065 28.823783"></polygon>
                    <polygon id="Stroke-19" stroke="#4E626A" stroke-linecap="round" stroke-linejoin="round" points="15.5308065 31.4002346 12.9469355 31.4002346 12.9469355 28.823783 15.5308065 28.823783"></polygon>
                    <polygon id="Fill-20" fill="#D5F5ED" points="36.1879839 13.6804839 33.6048387 13.6804839 33.6048387 11.1047507 36.1879839 11.1047507"></polygon>
                    <polygon id="Stroke-21" stroke="#4E626A" stroke-linecap="round" stroke-linejoin="round" points="36.1879839 13.6804839 33.6048387 13.6804839 33.6048387 11.1047507 36.1879839 11.1047507"></polygon>
                    <polygon id="Fill-22" fill="#24D4A9" points="36.1879839 34.3926833 33.6048387 34.3926833 33.6048387 31.8169501 36.1879839 31.8169501"></polygon>
                    <polygon id="Stroke-23" stroke="#4E626A" stroke-linecap="round" stroke-linejoin="round" fill="#D5F5ED" points="36.1879839 34.3926833 33.6048387 34.3926833 33.6048387 31.8169501 36.1879839 31.8169501"></polygon>
                    <polygon id="Fill-24" fill="#24D4A9" points="36.1879839 39.6770674 33.6048387 39.6770674 33.6048387 37.1006158 36.1879839 37.1006158"></polygon>
                    <polygon id="Stroke-25" stroke="#4E626A" stroke-linecap="round" stroke-linejoin="round" fill="#D5F5ED" points="36.1879839 39.6770674 33.6048387 39.6770674 33.6048387 37.1006158 36.1879839 37.1006158"></polygon>
                    <polygon id="Fill-26" fill="#24D4A9" points="30.6203226 41.1880205 26.1377419 41.1880205 26.1377419 10.9668035 30.6203226 10.9668035"></polygon>
                    <polygon id="Stroke-27" stroke="#4E626A" stroke-linecap="round" stroke-linejoin="round" fill="#D5F5ED" points="30.6203226 41.1880205 26.1377419 41.1880205 26.1377419 10.9668035 30.6203226 10.9668035"></polygon>
                    <g id="Group-30" transform="translate(26.854839, 15.806452)">
                        <path d="M2.46875806,0.343071848 L0.641177419,6.95016862" id="Fill-28" fill="#24D4A9"></path>
                        <path d="M2.46875806,0.343071848 L0.641177419,6.95016862" id="Stroke-29" stroke="#4E626A" stroke-width="0.5" stroke-linecap="round" stroke-linejoin="round"></path>
                    </g>
                    <g id="Group-33" transform="translate(26.854839, 28.739003)">
                        <path d="M2.43827419,0.0849237537 L0.609241935,6.69202053" id="Fill-31" fill="#24D4A9"></path>
                        <path d="M2.43827419,0.0849237537 L0.609241935,6.69202053" id="Stroke-32" stroke="#4E626A" stroke-width="0.5" stroke-linecap="round" stroke-linejoin="round"></path>
                    </g>
                    <path d="M0.363193548,47.778305 L44.4602903,47.778305 L0.363193548,47.778305 Z" id="Fill-34" fill="#24D4A9"></path>
                    <g id="Group-37" transform="translate(0.000000, 47.000000)" stroke="#4E626A" stroke-linecap="round" stroke-linejoin="round">
                        <path d="M0.362903226,0.778592375 L44.4607258,0.778592375" id="Stroke-35"></path>
                    </g>
                </g>
            </g>
        </g>
    </g>
</svg>