<?xml version="1.0" encoding="UTF-8" standalone="no"?>
<svg width="62px" height="62px" viewBox="0 0 62 62" version="1.1" xmlns="http://www.w3.org/2000/svg" xmlns:xlink="http://www.w3.org/1999/xlink">
    <!-- Generator: sketchtool 41.2 (35397) - http://www.bohemiancoding.com/sketch -->
    <title>05C88689-38D4-46D4-BA16-9BED2C17ADFB</title>
    <desc>Created with sketchtool.</desc>
    <defs>
        <circle id="path-1" cx="29.8776135" cy="29.8776135" r="29.8776135"></circle>
        <polyline id="path-3" points="0 0.547329081 79.5121113 0.547329081 79.5121113 51.3894952 0 51.3894952"></polyline>
        <polygon id="path-5" points="0 0.547329081 79.5121113 0.547329081 79.5121113 51.3894952 0 51.3894952"></polygon>
    </defs>
    <g id="01-soc-comp-like-final" stroke="none" stroke-width="1" fill="none" fill-rule="evenodd">
        <g id="Society-View-Companies-01" transform="translate(-608.000000, -122.000000)">
            <g id="Group-6">
                <g id="SocietyCompanyInterestIcon-Copy" transform="translate(609.000000, 123.000000)">
                    <circle id="Oval-14-Copy-3" stroke="#2D3A41" fill="#FFDD18" cx="30" cy="30" r="30"></circle>
                    <g id="Page-1">
                        <mask id="mask-2" fill="white">
                            <use xlink:href="#path-1"></use>
                        </mask>
                        <g id="Mask"></g>
                        <g mask="url(#mask-2)">
                            <g transform="translate(-5.975523, 10.755941)">
                                <polygon id="Fill-1" fill="#DAE7EB" points="23.887557 7.50831482 23.887557 29.8385983 19.0740682 29.8553154 19.0740682 20.0547814 20.3594989 19.148345 20.3594989 17.153442 3.85977621 17.153442 3.85977621 19.2275963 5.17332382 20.0547814 5.17332382 48.4162104 2.15992703 48.4162104 2.15992703 50.7330717 77.18006 51.0797961 77.18006 48.9802566 74.2999128 48.9802566 74.2999128 25.6549981 75.8616225 24.5361931 75.8616225 22.2818659 44.9923368 22.2824851 44.9923368 24.5361931 46.6726265 25.5881299 46.6726265 36.0523932 41.6183104 36.0523932 41.6183104 0.856780523"></polygon>
                                <g id="Group-62" stroke-width="1" fill="none">
                                    <g id="Group-4">
                                        <mask id="mask-4" fill="white">
                                            <use xlink:href="#path-3"></use>
                                        </mask>
                                        <g id="Clip-3"></g>
                                        <path d="M77.1796933,51.3894952 C77.0109919,51.3894952 76.8740749,51.2508054 76.8740749,51.0799199 L76.8740749,49.2893365 L74.3001573,49.2893365 C74.131456,49.2893365 73.994539,49.1512659 73.994539,48.9797612 L73.994539,25.6557411 C73.994539,25.5548196 74.0428267,25.4607087 74.1235099,25.4025085 L75.5562487,24.3759569 L75.5562487,22.5909459 L45.2975884,22.5915651 L45.2975884,24.3635739 L46.8336262,25.3238764 C46.923478,25.3808383 46.9784893,25.4799023 46.9784893,25.5876345 L46.9784893,36.052517 C46.9784893,36.2240217 46.8415723,36.3620923 46.672871,36.3620923 L41.6179437,36.3620923 C41.4492423,36.3620923 41.3123253,36.2240217 41.3123253,36.052517 L41.3123253,1.30207359 L24.1928086,7.72390304 L24.1928086,29.838103 C24.1928086,30.0089886 24.0571141,30.1470591 23.8884128,30.1476783 L19.074924,30.1650145 L19.0737015,30.1650145 C18.9930182,30.1650145 18.9153912,30.1321995 18.8579349,30.0746185 C18.8004787,30.0164184 18.7680831,29.9377863 18.7680831,29.8554392 L18.7680831,20.0549053 C18.7680831,19.9533646 18.8175933,19.8580154 18.899499,19.8004344 L20.0541251,18.9868706 L20.0541251,17.4631411 L4.16502781,17.4631411 L4.16502781,19.0549771 L5.3349348,19.7917663 C5.42417535,19.8487281 5.47918665,19.9477922 5.47918665,20.0549053 L5.47918665,48.4157151 C5.47918665,48.5872198 5.34226964,48.7252904 5.17356832,48.7252904 L2.46517862,48.7252904 L2.46517862,50.7325764 C2.46517862,50.9040811 2.32887285,51.0421517 2.15956029,51.0421517 C1.99085897,51.0421517 1.85394195,50.9040811 1.85394195,50.7325764 L1.85394195,48.4157151 C1.85394195,48.2448295 1.99085897,48.1061398 2.15956029,48.1061398 L4.86794998,48.1061398 L4.86794998,20.2270291 L3.69804299,19.49024 C3.60880244,19.4338973 3.55379114,19.3348332 3.55379114,19.2277201 L3.55379114,17.1535658 C3.55379114,16.9826803 3.69070815,16.8439906 3.85940947,16.8439906 L20.3597434,16.8439906 C20.5284448,16.8439906 20.6653618,16.9826803 20.6653618,17.1535658 L20.6653618,19.1484689 C20.6653618,19.2500096 20.6164628,19.3447396 20.5345571,19.4023206 L19.3793198,20.2158844 L19.3793198,29.5446257 L23.5815719,29.529766 L23.5815719,7.50843865 C23.5815719,7.37903618 23.6616439,7.26263588 23.7814463,7.21805704 L41.5115885,0.566522748 C41.6057189,0.531231167 41.7108516,0.544233328 41.7927574,0.60305263 C41.8746631,0.66001448 41.923562,0.755363664 41.923562,0.856904353 L41.923562,35.7429418 L46.3672526,35.7429418 L46.3672526,25.7603775 L44.8312149,24.800075 C44.7413631,24.7431132 44.6863518,24.6440491 44.6863518,24.5363169 L44.6863518,22.2819898 C44.6863518,22.1111042 44.8226575,21.9724145 44.9919701,21.9724145 L75.861867,21.9717954 C75.9431615,21.9717954 76.0207885,22.0046103 76.0776335,22.0628105 C76.1350898,22.1210106 76.1674853,22.1990236 76.1674853,22.2813706 L76.1674853,24.5363169 C76.1674853,24.6366193 76.1191976,24.7307302 76.0385144,24.7889303 L74.6057756,25.8154819 L74.6057756,48.670186 L77.1796933,48.670186 C77.3483946,48.670186 77.4853116,48.8088757 77.4853116,48.9797612 L77.4853116,51.0799199 C77.4853116,51.2508054 77.3483946,51.3894952 77.1796933,51.3894952" id="Fill-2" fill="#2D3A41" mask="url(#mask-4)"></path>
                                    </g>
                                    <mask id="mask-6" fill="white">
                                        <use xlink:href="#path-5"></use>
                                    </mask>
                                    <g id="Clip-6"></g>
                                    <polygon id="Fill-5" fill="#75A6B6" mask="url(#mask-6)" points="10.7779362 27.9775556 8.06893531 27.9775556 8.06893531 22.4491604 10.7779362 22.4491604"></polygon>
                                    <path d="M8.37455365,27.6679804 L10.4723179,27.6679804 L10.4723179,22.7587357 L8.37455365,22.7587357 L8.37455365,27.6679804 Z M10.7779362,28.2871309 L8.06893531,28.2871309 C7.90023399,28.2871309 7.76331698,28.1490603 7.76331698,27.9775556 L7.76331698,22.4497796 C7.76331698,22.2782749 7.90023399,22.1402043 8.06893531,22.1402043 L10.7779362,22.1402043 C10.9466376,22.1402043 11.0835546,22.2782749 11.0835546,22.4497796 L11.0835546,27.9775556 C11.0835546,28.1490603 10.9466376,28.2871309 10.7779362,28.2871309 L10.7779362,28.2871309 Z" id="Fill-7" fill="#4E626A" mask="url(#mask-6)"></path>
                                    <polygon id="Fill-8" fill="#24D4A9" mask="url(#mask-6)" points="16.2099966 27.9775556 13.5022181 27.9775556 13.5022181 22.4491604 16.2099966 22.4491604"></polygon>
                                    <path d="M13.8078364,27.6679804 L15.9043782,27.6679804 L15.9043782,22.7587357 L13.8078364,22.7587357 L13.8078364,27.6679804 Z M16.2099966,28.2871309 L13.5022181,28.2871309 C13.3329055,28.2871309 13.1965998,28.1490603 13.1965998,27.9775556 L13.1965998,22.4497796 C13.1965998,22.2782749 13.3329055,22.1402043 13.5022181,22.1402043 L16.2099966,22.1402043 C16.3786979,22.1402043 16.5156149,22.2782749 16.5156149,22.4497796 L16.5156149,27.9775556 C16.5156149,28.1490603 16.3786979,28.2871309 16.2099966,28.2871309 L16.2099966,28.2871309 Z" id="Fill-9" fill="#4E626A" mask="url(#mask-6)"></path>
                                    <polygon id="Fill-10" fill="#99B3B7" mask="url(#mask-6)" points="23.8874959 7.50843865 23.8874959 51.0799199 41.6182493 51.0799199 41.6182493 0.856904353"></polygon>
                                    <path d="M24.1931142,50.7703446 L41.312631,50.7703446 L41.312631,1.30207359 L24.1931142,7.72390304 L24.1931142,50.7703446 Z M41.6182493,51.3894952 L23.8874959,51.3894952 C23.7187946,51.3894952 23.5818776,51.2508054 23.5818776,51.0799199 L23.5818776,7.50843865 C23.5818776,7.37903618 23.6613383,7.26263588 23.7811407,7.21805704 L41.5118941,0.566522748 C41.6060246,0.531231167 41.710546,0.544233328 41.7924517,0.60305263 C41.8749687,0.66001448 41.9238676,0.755363664 41.9238676,0.856904353 L41.9238676,51.0799199 C41.9238676,51.2508054 41.7869506,51.3894952 41.6182493,51.3894952 L41.6182493,51.3894952 Z" id="Fill-11" fill="#2D3A41" mask="url(#mask-6)"></path>
                                    <polygon id="Fill-12" fill="#F6F9FF" mask="url(#mask-6)" points="37.8710017 22.6701972 35.1620008 22.6701972 35.1620008 17.1424211 37.8710017 17.1424211"></polygon>
                                    <path d="M35.4676192,22.3606219 L37.5653834,22.3606219 L37.5653834,17.4519964 L35.4676192,17.4519964 L35.4676192,22.3606219 Z M37.8710017,22.9797724 L35.1620008,22.9797724 C34.9932995,22.9797724 34.8563825,22.8417019 34.8563825,22.6701972 L34.8563825,17.1424211 C34.8563825,16.9715356 34.9932995,16.8328458 35.1620008,16.8328458 L37.8710017,16.8328458 C38.0397031,16.8328458 38.1766201,16.9715356 38.1766201,17.1424211 L38.1766201,22.6701972 C38.1766201,22.8417019 38.0397031,22.9797724 37.8710017,22.9797724 L37.8710017,22.9797724 Z" id="Fill-13" fill="#4E626A" mask="url(#mask-6)"></path>
                                    <polygon id="Fill-14" fill="#24D4A9" mask="url(#mask-6)" points="37.8710017 31.0621636 35.1620008 31.0621636 35.1620008 25.5337684 37.8710017 25.5337684"></polygon>
                                    <path d="M35.4676192,30.7525884 L37.5653834,30.7525884 L37.5653834,25.8433437 L35.4676192,25.8433437 L35.4676192,30.7525884 Z M37.8710017,31.3717389 L35.1620008,31.3717389 C34.9932995,31.3717389 34.8563825,31.2330492 34.8563825,31.0621636 L34.8563825,25.5337684 C34.8563825,25.3628829 34.9932995,25.2241932 35.1620008,25.2241932 L37.8710017,25.2241932 C38.0397031,25.2241932 38.1766201,25.3628829 38.1766201,25.5337684 L38.1766201,31.0621636 C38.1766201,31.2330492 38.0397031,31.3717389 37.8710017,31.3717389 L37.8710017,31.3717389 Z" id="Fill-15" fill="#4E626A" mask="url(#mask-6)"></path>
                                    <polygon id="Fill-16" fill="#F6F9FF" mask="url(#mask-6)" points="10.7779362 42.3864271 8.06893531 42.3864271 8.06893531 36.8580319 10.7779362 36.8580319"></polygon>
                                    <path d="M8.37455365,42.0768518 L10.4723179,42.0768518 L10.4723179,37.1676072 L8.37455365,37.1676072 L8.37455365,42.0768518 Z M10.7779362,42.6960024 L8.06893531,42.6960024 C7.90023399,42.6960024 7.76331698,42.5573126 7.76331698,42.3864271 L7.76331698,36.8580319 C7.76331698,36.6871463 7.90023399,36.5484566 8.06893531,36.5484566 L10.7779362,36.5484566 C10.9466376,36.5484566 11.0835546,36.6871463 11.0835546,36.8580319 L11.0835546,42.3864271 C11.0835546,42.5573126 10.9466376,42.6960024 10.7779362,42.6960024 L10.7779362,42.6960024 Z" id="Fill-17" fill="#4E626A" mask="url(#mask-6)"></path>
                                    <polygon id="Fill-18" fill="#75A6B6" mask="url(#mask-6)" points="16.2099966 42.3864271 13.5022181 42.3864271 13.5022181 36.8580319 16.2099966 36.8580319"></polygon>
                                    <path d="M13.8078364,42.0768518 L15.9043782,42.0768518 L15.9043782,37.1676072 L13.8078364,37.1676072 L13.8078364,42.0768518 Z M16.2099966,42.6960024 L13.5022181,42.6960024 C13.3329055,42.6960024 13.1965998,42.5573126 13.1965998,42.3864271 L13.1965998,36.8580319 C13.1965998,36.6871463 13.3329055,36.5484566 13.5022181,36.5484566 L16.2099966,36.5484566 C16.3786979,36.5484566 16.5156149,36.6871463 16.5156149,36.8580319 L16.5156149,42.3864271 C16.5156149,42.5573126 16.3786979,42.6960024 16.2099966,42.6960024 L16.2099966,42.6960024 Z" id="Fill-19" fill="#4E626A" mask="url(#mask-6)"></path>
                                    <polygon id="Fill-20" fill="#F6F9FF" mask="url(#mask-6)" points="10.7779362 33.5059508 8.06893531 33.5059508 8.06893531 30.7414437 10.7779362 30.7414437"></polygon>
                                    <path d="M8.37455365,33.1963756 L10.4723179,33.1963756 L10.4723179,31.0510189 L8.37455365,31.0510189 L8.37455365,33.1963756 Z M10.7779362,33.8155261 L8.06893531,33.8155261 C7.90023399,33.8155261 7.76331698,33.6774555 7.76331698,33.5059508 L7.76331698,30.7414437 C7.76331698,30.5705581 7.90023399,30.4318684 8.06893531,30.4318684 L10.7779362,30.4318684 C10.9466376,30.4318684 11.0835546,30.5705581 11.0835546,30.7414437 L11.0835546,33.5059508 C11.0835546,33.6774555 10.9466376,33.8155261 10.7779362,33.8155261 L10.7779362,33.8155261 Z" id="Fill-21" fill="#4E626A" mask="url(#mask-6)"></path>
                                    <polygon id="Fill-22" fill="#75A6B6" mask="url(#mask-6)" points="16.2099966 33.5059508 13.5022181 33.5059508 13.5022181 30.7414437 16.2099966 30.7414437"></polygon>
                                    <path d="M13.8078364,33.1963756 L15.9043782,33.1963756 L15.9043782,31.0510189 L13.8078364,31.0510189 L13.8078364,33.1963756 Z M16.2099966,33.8155261 L13.5022181,33.8155261 C13.3329055,33.8155261 13.1965998,33.6774555 13.1965998,33.5059508 L13.1965998,30.7414437 C13.1965998,30.5705581 13.3329055,30.4318684 13.5022181,30.4318684 L16.2099966,30.4318684 C16.3786979,30.4318684 16.5156149,30.5705581 16.5156149,30.7414437 L16.5156149,33.5059508 C16.5156149,33.6774555 16.3786979,33.8155261 16.2099966,33.8155261 L16.2099966,33.8155261 Z" id="Fill-23" fill="#4E626A" mask="url(#mask-6)"></path>
                                    <polygon id="Fill-24" fill="#F6F9FF" mask="url(#mask-6)" points="37.8710017 14.4930759 35.1620008 14.4930759 35.1620008 11.7291879 37.8710017 11.7291879"></polygon>
                                    <path d="M35.4676192,14.1835007 L37.5653834,14.1835007 L37.5653834,12.0387632 L35.4676192,12.0387632 L35.4676192,14.1835007 Z M37.8710017,14.8026512 L35.1620008,14.8026512 C34.9932995,14.8026512 34.8563825,14.6645806 34.8563825,14.4930759 L34.8563825,11.7291879 C34.8563825,11.5583024 34.9932995,11.4196126 35.1620008,11.4196126 L37.8710017,11.4196126 C38.0397031,11.4196126 38.1766201,11.5583024 38.1766201,11.7291879 L38.1766201,14.4930759 C38.1766201,14.6645806 38.0397031,14.8026512 37.8710017,14.8026512 L37.8710017,14.8026512 Z" id="Fill-25" fill="#4E626A" mask="url(#mask-6)"></path>
                                    <polygon id="Fill-26" fill="#75A6B6" mask="url(#mask-6)" points="37.8710017 36.7174847 35.1620008 36.7174847 35.1620008 33.9535967 37.8710017 33.9535967"></polygon>
                                    <path d="M35.4676192,36.4079094 L37.5653834,36.4079094 L37.5653834,34.263172 L35.4676192,34.263172 L35.4676192,36.4079094 Z M37.8710017,37.02706 L35.1620008,37.02706 C34.9932995,37.02706 34.8563825,36.8883703 34.8563825,36.7174847 L34.8563825,33.9535967 C34.8563825,33.7827111 34.9932995,33.6440214 35.1620008,33.6440214 L37.8710017,33.6440214 C38.0397031,33.6440214 38.1766201,33.7827111 38.1766201,33.9535967 L38.1766201,36.7174847 C38.1766201,36.8883703 38.0397031,37.02706 37.8710017,37.02706 L37.8710017,37.02706 Z" id="Fill-27" fill="#4E626A" mask="url(#mask-6)"></path>
                                    <polygon id="Fill-28" fill="#F6F9FF" mask="url(#mask-6)" points="37.8710017 42.3864271 35.1620008 42.3864271 35.1620008 39.6225391 37.8710017 39.6225391"></polygon>
                                    <path d="M35.4676192,42.0768518 L37.5653834,42.0768518 L37.5653834,39.9321143 L35.4676192,39.9321143 L35.4676192,42.0768518 Z M37.8710017,42.6960024 L35.1620008,42.6960024 C34.9932995,42.6960024 34.8563825,42.5573126 34.8563825,42.3864271 L34.8563825,39.6225391 C34.8563825,39.4516535 34.9932995,39.3129638 35.1620008,39.3129638 L37.8710017,39.3129638 C38.0397031,39.3129638 38.1766201,39.4516535 38.1766201,39.6225391 L38.1766201,42.3864271 C38.1766201,42.5573126 38.0397031,42.6960024 37.8710017,42.6960024 L37.8710017,42.6960024 Z" id="Fill-29" fill="#4E626A" mask="url(#mask-6)"></path>
                                    <polygon id="Fill-30" fill="#F6F9FF" mask="url(#mask-6)" points="32.0318578 44.0086015 27.332059 44.0086015 27.332059 11.5818301 32.0318578 11.5818301"></polygon>
                                    <path d="M27.6370661,43.6990262 L31.7256282,43.6990262 L31.7256282,11.8914053 L27.6370661,11.8914053 L27.6370661,43.6990262 Z M32.0318578,44.3181768 L27.3314478,44.3181768 C27.1627465,44.3181768 27.0258295,44.1794871 27.0258295,44.0086015 L27.0258295,11.5818301 C27.0258295,11.4109445 27.1627465,11.2722548 27.3314478,11.2722548 L32.0318578,11.2722548 C32.2005591,11.2722548 32.3374762,11.4109445 32.3374762,11.5818301 L32.3374762,44.0086015 C32.3374762,44.1794871 32.2005591,44.3181768 32.0318578,44.3181768 L32.0318578,44.3181768 Z" id="Fill-31" fill="#4E626A" mask="url(#mask-6)"></path>
                                    <path d="M30.6731398,17.1427307 L28.7569128,24.2313853" id="Fill-32" fill="#24D4A9" mask="url(#mask-6)"></path>
                                    <path d="M28.7570962,24.3862967 C28.7442602,24.3862967 28.7302018,24.3844393 28.7167546,24.3807244 C28.6354601,24.358435 28.5877837,24.2729922 28.6097882,24.1906452 L30.5260151,17.1013714 C30.5480197,17.0208819 30.6317591,16.9707307 30.7136648,16.9936392 C30.7949593,17.0159287 30.8426357,17.1007523 30.8206312,17.1837185 L28.9044043,24.272373 C28.8860672,24.3410987 28.8243323,24.3862967 28.7570962,24.3862967" id="Fill-33" fill="#4E626A" mask="url(#mask-6)"></path>
                                    <path d="M30.6397052,30.7416913 L28.7234782,37.8309651" id="Fill-34" fill="#24D4A9" mask="url(#mask-6)"></path>
                                    <path d="M28.7236616,37.9858765 C28.7108256,37.9858765 28.6967672,37.9840191 28.68332,37.9803042 C28.6020255,37.9580147 28.554349,37.872572 28.5763535,37.7902249 L30.4925805,30.7003321 C30.514585,30.6192233 30.5989357,30.5703105 30.6802302,30.5925999 C30.7615246,30.6148893 30.8092011,30.6997129 30.7871966,30.7826791 L28.8709696,37.8719528 C28.8526325,37.9406785 28.7908976,37.9858765 28.7236616,37.9858765" id="Fill-35" fill="#4E626A" mask="url(#mask-6)"></path>
                                    <polygon id="Fill-38" fill="#75A6B6" mask="url(#mask-6)" points="55.3254762 43.6247282 49.6605347 43.6247282 49.6605347 29.0338265 55.3254762 29.0338265"></polygon>
                                    <path d="M49.9667643,43.3151529 L55.0204691,43.3151529 L55.0204691,29.3434017 L49.9667643,29.3434017 L49.9667643,43.3151529 Z M55.3254762,43.9343035 L49.6611459,43.9343035 C49.4918334,43.9343035 49.3555276,43.7956137 49.3555276,43.6247282 L49.3555276,29.0338265 C49.3555276,28.8623218 49.4918334,28.7242512 49.6611459,28.7242512 L55.3254762,28.7242512 C55.4947887,28.7242512 55.6310945,28.8623218 55.6310945,29.0338265 L55.6310945,43.6247282 C55.6310945,43.7956137 55.4947887,43.9343035 55.3254762,43.9343035 L55.3254762,43.9343035 Z" id="Fill-39" fill="#4E626A" mask="url(#mask-6)"></path>
                                    <polygon id="Fill-40" fill="#F6F9FF" mask="url(#mask-6)" points="63.2526046 43.6247282 57.5864406 43.6247282 57.5864406 29.0338265 63.2526046 29.0338265"></polygon>
                                    <path d="M57.8920589,43.3151529 L62.9469862,43.3151529 L62.9469862,29.3434017 L57.8920589,29.3434017 L57.8920589,43.3151529 Z M63.2526046,43.9343035 L57.5864406,43.9343035 C57.4177393,43.9343035 57.2808223,43.7956137 57.2808223,43.6247282 L57.2808223,29.0338265 C57.2808223,28.8623218 57.4177393,28.7242512 57.5864406,28.7242512 L63.2526046,28.7242512 C63.4213059,28.7242512 63.5582229,28.8623218 63.5582229,29.0338265 L63.5582229,43.6247282 C63.5582229,43.7956137 63.4213059,43.9343035 63.2526046,43.9343035 L63.2526046,43.9343035 Z" id="Fill-41" fill="#4E626A" mask="url(#mask-6)"></path>
                                    <polygon id="Fill-42" fill="#75A6B6" mask="url(#mask-6)" points="71.1785105 43.6247282 65.513569 43.6247282 65.513569 29.0338265 71.1785105 29.0338265"></polygon>
                                    <path d="M65.8191874,43.3151529 L70.8728922,43.3151529 L70.8728922,29.3434017 L65.8191874,29.3434017 L65.8191874,43.3151529 Z M71.1785105,43.9343035 L65.513569,43.9343035 C65.3448677,43.9343035 65.2079507,43.7956137 65.2079507,43.6247282 L65.2079507,29.0338265 C65.2079507,28.8623218 65.3448677,28.7242512 65.513569,28.7242512 L71.1785105,28.7242512 C71.3472118,28.7242512 71.4841288,28.8623218 71.4841288,29.0338265 L71.4841288,43.6247282 C71.4841288,43.7956137 71.3472118,43.9343035 71.1785105,43.9343035 L71.1785105,43.9343035 Z" id="Fill-43" fill="#4E626A" mask="url(#mask-6)"></path>
                                    <path d="M52.8925708,31.2707555 L52.094907,34.221627" id="Fill-44" fill="#24D4A9" mask="url(#mask-6)"></path>
                                    <path d="M52.0950903,34.3761669 C52.0822544,34.3761669 52.0681959,34.3743095 52.0547487,34.3705946 C51.9734543,34.3483052 51.9257778,34.2628624 51.9477823,34.1805154 L52.7448349,31.2296439 C52.7674507,31.1485351 52.8518013,31.0996223 52.9330958,31.1212925 C53.0143903,31.1435819 53.0620668,31.2290247 53.0400622,31.3119909 L52.2423984,34.2622432 C52.2240613,34.3309689 52.1623264,34.3761669 52.0950903,34.3761669" id="Fill-45" fill="#4E626A" mask="url(#mask-6)"></path>
                                    <path d="M52.8925708,38.5294288 L52.094907,41.4803003" id="Fill-46" fill="#24D4A9" mask="url(#mask-6)"></path>
                                    <path d="M52.0950903,41.6348402 C52.0822544,41.6348402 52.0681959,41.6329828 52.0547487,41.6292679 C51.9734543,41.6069785 51.9257778,41.5215357 51.9477823,41.4391887 L52.7448349,38.4883172 C52.7674507,38.4065893 52.8518013,38.3595339 52.9330958,38.3799658 C53.0143903,38.4022553 53.0620668,38.487698 53.0400622,38.5706642 L52.2423984,41.5209165 C52.2240613,41.5896423 52.1623264,41.6348402 52.0950903,41.6348402" id="Fill-47" fill="#4E626A" mask="url(#mask-6)"></path>
                                    <path d="M60.8183545,31.2707555 L60.0206907,34.221627" id="Fill-48" fill="#24D4A9" mask="url(#mask-6)"></path>
                                    <path d="M60.020874,34.3761669 C60.0080381,34.3761669 59.9939796,34.3743095 59.9805324,34.3705946 C59.8992379,34.3483052 59.8515615,34.2628624 59.873566,34.1805154 L60.6706186,31.2296439 C60.6932344,31.147916 60.7757513,31.1008606 60.8588795,31.1212925 C60.940174,31.1435819 60.9878504,31.2290247 60.9658459,31.3119909 L60.1681821,34.2622432 C60.149845,34.3309689 60.0881101,34.3761669 60.020874,34.3761669" id="Fill-49" fill="#4E626A" mask="url(#mask-6)"></path>
                                    <path d="M60.8183545,38.5294288 L60.0206907,41.4803003" id="Fill-50" fill="#24D4A9" mask="url(#mask-6)"></path>
                                    <path d="M60.020874,41.6348402 C60.0080381,41.6348402 59.9939796,41.6329828 59.9805324,41.6292679 C59.8992379,41.6069785 59.8515615,41.5215357 59.873566,41.4391887 L60.6706186,38.4883172 C60.6932344,38.4065893 60.7757513,38.3582956 60.8588795,38.3799658 C60.940174,38.4022553 60.9878504,38.487698 60.9658459,38.5706642 L60.1681821,41.5209165 C60.149845,41.5896423 60.0881101,41.6348402 60.020874,41.6348402" id="Fill-51" fill="#4E626A" mask="url(#mask-6)"></path>
                                    <polygon id="Fill-56" fill="#05D5A8" mask="url(#mask-6)" points="3.85965397 17.1536277 3.85965397 19.2277821 5.17320158 20.0549672 19.073946 20.0549672 20.3599879 19.1485308 20.3599879 17.1536277"></polygon>
                                    <path d="M5.2605473,19.7450823 L18.9779207,19.7450823 L20.0543085,18.9866229 L20.0543085,17.4628934 L4.16521118,17.4628934 L4.16521118,19.0553486 L5.2605473,19.7450823 Z M19.0738849,20.3642329 L5.17314045,20.3642329 C5.11629544,20.3642329 5.06067291,20.348135 5.01177397,20.3177966 L3.69822636,19.4906115 C3.60837457,19.4336496 3.55397451,19.3345855 3.55397451,19.2274725 L3.55397451,17.1533182 C3.55397451,16.9824326 3.69089152,16.8437429 3.85959284,16.8437429 L20.3599268,16.8437429 C20.5286281,16.8437429 20.6655452,16.9824326 20.6655452,17.1533182 L20.6655452,19.1482212 C20.6655452,19.2497619 20.6166462,19.3451111 20.5341293,19.4020729 L19.2486985,20.3085093 C19.1973547,20.3450392 19.136231,20.3642329 19.0738849,20.3642329 L19.0738849,20.3642329 Z" id="Fill-57" fill="#2D3A41" mask="url(#mask-6)"></path>
                                    <polygon id="Fill-58" fill="#05D5A8" mask="url(#mask-6)" points="46.6727487 25.5876964 44.9918479 24.5363788 44.9918479 22.2820517 75.8617448 22.2820517 75.8617448 24.5363788 74.3000351 25.5876964"></polygon>
                                    <path d="M46.7596054,25.2781212 L74.2077994,25.2781212 L75.5561875,24.3704465 L75.5561875,22.591627 L45.2975273,22.591627 L45.2975273,24.3630167 L46.7596054,25.2781212 Z M74.3000962,25.8972717 L46.6728098,25.8972717 C46.6159648,25.8972717 46.5603423,25.881793 46.5120546,25.8514546 L44.8311537,24.800137 C44.7413019,24.7431751 44.6862906,24.644111 44.6862906,24.5363788 L44.6862906,22.2820517 C44.6862906,22.1111661 44.8232077,21.9724764 44.991909,21.9724764 L75.8618059,21.9724764 C76.0305072,21.9724764 76.1674242,22.1111661 76.1674242,22.2820517 L76.1674242,24.5363788 C76.1674242,24.639777 76.1160803,24.7363645 76.0305072,24.7939455 L74.4687975,25.8452631 C74.4186761,25.8793164 74.3606086,25.8972717 74.3000962,25.8972717 L74.3000962,25.8972717 Z" id="Fill-59" fill="#2D3A41" mask="url(#mask-6)"></path>
                                    <polygon id="Fill-60" fill="#2D3A41" mask="url(#mask-6)" points="23.8874959 7.57673095 41.6182493 0.856470948 41.6182493 3.67793998 23.8874959 10.3746723"></polygon>
                                    <path d="M24.1931142,7.79139045 L24.1931142,9.92869812 L41.312631,3.46290899 L41.312631,1.3033119 L24.1931142,7.79139045 Z M23.8874959,10.6840618 C23.825761,10.6840618 23.7652486,10.6654873 23.7132934,10.6289574 C23.6307765,10.5707572 23.5818776,10.4760272 23.5818776,10.3744865 L23.5818776,7.57654521 C23.5818776,7.44714274 23.6607271,7.33198074 23.7805295,7.28678275 L41.5112829,0.566522748 C41.6048021,0.531850317 41.7099348,0.544852479 41.7924517,0.602433479 C41.8743575,0.66001448 41.9238676,0.755363664 41.9238676,0.856904353 L41.9238676,3.67775423 C41.9238676,3.8071567 41.8444069,3.92293785 41.7252157,3.96813584 L23.9944623,10.6648681 C23.9596218,10.6772511 23.9235589,10.6840618 23.8874959,10.6840618 L23.8874959,10.6840618 Z" id="Fill-61" fill="#2D3A41" mask="url(#mask-6)"></path>
                                </g>
                            </g>
                        </g>
                    </g>
                </g>
            </g>
        </g>
    </g>
</svg>